<?xml version="1.0" standalone="no"?>
<!DOCTYPE svg PUBLIC "-//W3C//DTD SVG 20010904//EN"
 "http://www.w3.org/TR/2001/REC-SVG-20010904/DTD/svg10.dtd">
<svg version="1.0" xmlns="http://www.w3.org/2000/svg"
 width="662.000000pt" height="662.000000pt" viewBox="0 0 662.000000 662.000000"
 preserveAspectRatio="xMidYMid meet">
<metadata>
Created by potrace 1.14, written by Peter Selinger 2001-2017
</metadata>
<g transform="translate(0.000000,662.000000) scale(0.100000,-0.100000)"
fill="#000000" stroke="none">
<path d="M3098 6615 c-2 -2 -41 -6 -88 -9 -75 -6 -124 -12 -245 -32 -273 -44
-608 -148 -854 -265 -68 -32 -125 -59 -127 -59 -10 0 -309 -184 -312 -191 -2
-5 -8 -9 -13 -9 -9 0 -67 -37 -79 -50 -3 -3 -21 -17 -40 -30 -19 -13 -40 -29
-47 -35 -7 -5 -18 -15 -25 -20 -7 -6 -39 -32 -70 -57 -122 -99 -418 -393 -418
-415 0 -3 -6 -11 -13 -17 -24 -19 -147 -183 -147 -196 0 -6 -4 -9 -9 -5 -5 3
-13 -5 -17 -17 -4 -13 -9 -25 -13 -28 -11 -9 -51 -69 -51 -76 0 -4 -6 -15 -14
-23 -31 -35 -150 -252 -211 -386 -15 -33 -31 -67 -35 -76 -47 -93 -154 -415
-175 -527 -2 -9 -4 -19 -6 -22 -1 -3 -3 -9 -4 -15 -1 -5 -6 -28 -10 -50 -5
-22 -10 -42 -10 -45 -1 -3 -5 -25 -9 -50 -5 -25 -10 -54 -13 -65 -2 -11 -6
-36 -9 -55 -5 -37 -8 -56 -21 -180 -15 -149 -7 -612 12 -711 3 -13 8 -46 11
-74 3 -27 10 -69 15 -93 5 -23 12 -59 15 -80 3 -20 17 -80 30 -132 14 -52 27
-106 30 -119 3 -14 7 -28 10 -33 3 -4 7 -16 9 -25 4 -21 68 -204 86 -248 7
-16 13 -32 14 -35 12 -43 139 -301 202 -410 51 -87 140 -228 153 -240 3 -3 21
-27 39 -55 19 -27 37 -52 41 -55 3 -3 17 -21 31 -40 15 -19 37 -46 49 -60 12
-14 36 -42 53 -63 35 -43 221 -232 283 -288 56 -50 253 -209 259 -209 3 0 18
-11 33 -25 15 -14 33 -25 40 -25 7 0 15 -6 18 -14 3 -8 13 -17 22 -20 9 -3 52
-28 95 -56 43 -27 83 -50 88 -50 5 0 9 -3 9 -7 0 -5 33 -24 73 -43 39 -19 78
-41 85 -47 7 -7 17 -13 22 -13 4 0 46 -18 93 -40 46 -22 88 -40 94 -40 5 0 28
-9 51 -20 69 -33 316 -115 422 -140 117 -27 241 -51 390 -74 182 -28 642 -28
840 0 34 5 175 29 235 40 17 2 46 9 65 14 19 5 47 11 62 14 15 2 31 7 36 10 5
3 24 8 42 11 46 8 238 71 340 111 182 71 354 156 527 260 72 43 304 204 329
228 6 6 33 29 59 51 85 70 126 108 224 206 96 96 191 198 191 205 0 2 8 13 18
23 31 36 89 110 165 214 35 48 126 193 153 242 14 28 32 57 39 65 7 8 16 26
20 40 4 14 14 32 22 42 8 9 16 22 17 30 2 7 19 47 39 88 40 86 69 150 73 165
1 6 14 42 29 80 14 39 27 75 29 80 1 6 13 42 25 80 12 39 24 77 26 85 2 8 13
53 25 100 27 106 28 108 45 202 13 72 20 113 31 190 13 93 19 235 19 428 -1
241 -10 358 -41 525 -9 44 -17 91 -19 105 -2 14 -11 54 -20 90 -9 36 -18 76
-21 90 -2 14 -9 39 -15 56 -5 17 -11 40 -14 50 -2 10 -13 46 -25 79 -12 33
-23 69 -26 80 -7 24 -15 47 -39 100 -9 22 -18 47 -20 55 -2 8 -19 49 -38 90
-19 41 -35 78 -36 82 -1 4 -12 27 -25 50 -13 24 -42 79 -66 123 -24 44 -50 91
-59 105 -9 14 -23 37 -31 53 -7 15 -17 27 -22 27 -4 0 -8 5 -8 11 0 9 -127
195 -155 225 -5 7 -28 35 -50 63 -22 28 -43 51 -47 51 -5 0 -8 5 -8 11 0 17
-234 258 -336 346 -27 23 -60 52 -74 64 -56 48 -254 194 -285 209 -5 3 -41 26
-80 51 -38 25 -97 60 -130 78 -33 18 -66 38 -72 43 -7 6 -13 7 -13 2 0 -5 -4
-4 -8 1 -6 9 -133 70 -227 110 -22 9 -53 24 -70 33 -16 9 -31 15 -32 14 -2 -1
-8 0 -15 3 -7 2 -59 20 -116 39 -108 37 -264 81 -321 91 -19 3 -38 8 -42 11
-5 3 -27 7 -49 9 -22 2 -44 6 -48 9 -4 2 -27 7 -52 10 -25 3 -54 8 -65 10 -11
2 -49 7 -85 11 -36 4 -78 9 -95 12 -34 5 -512 13 -517 8z"/>
</g>
</svg>
